<?xml version="1.0" encoding="utf-8"?>
<!-- Generator: Adobe Illustrator 19.0.0, SVG Export Plug-In . SVG Version: 6.00 Build 0)  -->
<svg version="1.1" id="Capa_1" xmlns="http://www.w3.org/2000/svg" xmlns:xlink="http://www.w3.org/1999/xlink" x="0px" y="0px"
	 width="76.8px" height="76.3px" viewBox="0 0 76.8 76.3" style="enable-background:new 0 0 76.8 76.3;" xml:space="preserve">
<style type="text/css">
	.st0{fill:#ACD1A6;}
	.st1{fill:#FFFFFF;}
	.st2{fill:#00A98F;}
</style>
<path id="XMLID_20_" class="st0" d="M27.2,33.9"/>
<ellipse id="XMLID_7_" class="st1" cx="38.4" cy="38.2" rx="38.4" ry="38.2"/>
<path id="XMLID_6_" class="st2" d="M23.8,59.9c4.2,2.7,9.2,4.2,14.5,4.2C53.1,64.1,65,52.5,65,38.2S53.1,12.3,38.4,12.3
	S11.7,23.9,11.7,38.2c0,5.8,2,11.1,5.3,15.5l-2,8.8L23.8,59.9z"/>
<path id="XMLID_5_" class="st1" d="M46.9,63.5c0-0.1,0-9.4,0-9.5l0,0c0-0.1,0-0.2,0-0.3c0-0.2,0-0.3,0-0.5c0-0.3-0.1-0.7-0.5-1
	c-0.6-0.3-1.2-0.7-1.7-1c-0.4-0.2-0.8-0.4-1.1-0.7c-0.3-0.2-0.7-0.4-1-0.6c-0.4-0.3-0.9-0.5-1.3-0.8c-0.4-0.2-0.8-0.5-1.1-0.7
	c-0.4-0.2-0.7-0.4-1.1-0.7l-1-0.6c-0.6-0.4-1.2-0.7-1.8-1.1c-0.3-0.2-0.5-0.6-0.3-1c0.2-0.5,0.6-0.5,0.8-0.5c0.2,0,0.3,0,0.4,0.1
	c0.4,0.2,0.8,0.5,1.2,0.7c0.1,0.1,0.3,0.2,0.4,0.3c0.3,0.2,0.6,0.4,1,0.6c0.4,0.2,0.7,0.4,1.1,0.6c0.4,0.3,0.9,0.5,1.3,0.8l1.5,0.9
	c0.7,0.4,1.4,0.8,2,1.2c0,0,0.1,0,0.1,0.1c0.1,0.1,0.4,0.2,0.7,0.3l0.7,0.1l0-4.6c0-0.6,0-1.1,0-1.7c0-0.4-0.2-0.7-0.5-0.9
	c-0.3-0.2-0.6-0.3-0.9-0.5c-0.2-0.1-0.4-0.2-0.6-0.4c-0.4-0.3-0.9-0.5-1.3-0.8c-0.5-0.3-1-0.6-1.5-0.9c-0.6-0.4-1.3-0.8-1.9-1.2
	l-1.2-0.7c-0.3-0.2-0.4-0.3-0.5-0.5c-0.1-0.3-0.1-0.7,0.1-0.9c0.1-0.2,0.4-0.3,0.6-0.3c0.2,0,0.3,0,0.5,0.1c0.3,0.2,0.6,0.3,0.8,0.5
	c0.3,0.2,0.6,0.4,0.9,0.5c0.5,0.3,0.9,0.5,1.4,0.8c0.4,0.2,0.7,0.5,1.1,0.7c0.5,0.3,0.9,0.6,1.4,0.9c0,0,0.1,0,0.1,0.1
	c0.2,0.1,0.3,0.2,0.6,0.3l0.6,0.2l0.2-0.7c0,0,0-0.1,0-0.2l0-1.3c0-1.1,0-2.2,0-3.3c0-0.3-0.1-0.6-0.5-0.9c-0.3-0.2-0.6-0.4-1-0.6
	c-0.2-0.1-0.4-0.2-0.5-0.3c-0.4-0.2-0.7-0.4-1.1-0.7c-0.4-0.2-0.7-0.4-1.1-0.7c-0.5-0.3-1-0.6-1.6-0.9c-0.3-0.2-0.6-0.7-0.4-1.2
	c0.1-0.4,0.5-0.6,0.8-0.6c0.2,0,0.4,0.1,0.7,0.3c0.5,0.3,1,0.6,1.5,0.9c0.3,0.2,0.5,0.3,0.8,0.5c0.4,0.2,0.7,0.4,1.1,0.6
	c0.1,0.1,0.2,0.1,0.3,0.2c0,0,0.1,0,0.1,0l0.6,0.3l0.2-0.7c0.1-0.2,0.1-0.4,0.1-0.5l0,0c0-0.7,0-1.4,0-2.1c0-1.1,0-2.2,0-3.2
	c0-0.4,0.1-0.8,0.4-1.1c0.2-0.2,0.4-0.3,0.7-0.3c0.3,0,0.6,0.1,0.8,0.4c0.2,0.2,0.3,0.5,0.3,0.9c0,1,0,2.1,0,3.1c0,0.7,0,1.4,0,2.2
	l0,0c0,0.1,0,0.4,0.1,0.6l0.2,0.4l0.4,0c0.2,0,0.4-0.1,0.5-0.2l0,0c0.3-0.2,0.7-0.4,1-0.6l0.8-0.5c0.4-0.2,0.8-0.5,1.2-0.7
	c0.3-0.2,0.5-0.3,0.8-0.3c0.3,0,0.5,0.1,0.6,0.3c0.2,0.2,0.3,0.5,0.2,0.8c0,0.2-0.1,0.5-0.4,0.7c-0.3,0.2-0.5,0.3-0.8,0.5l-1,0.6
	c-0.4,0.2-0.8,0.5-1.1,0.7c-0.2,0.1-0.4,0.3-0.7,0.4c-0.5,0.3-0.9,0.6-1.4,0.8c-0.4,0.2-0.6,0.6-0.6,1.1c0,1.1,0,2.1,0,3.2
	c0,0.4,0,0.9,0,1.3l0,0c0,0.1,0,0.3,0.1,0.5l0.2,0.4l0.4,0c0.3,0,0.4-0.1,0.5-0.2l0.6-0.3c0.3-0.2,0.6-0.3,0.9-0.5
	c0.3-0.2,0.7-0.4,1-0.6c0.4-0.2,0.8-0.5,1.2-0.7c0.8-0.5,1.4-0.9,2.1-1.3c0.2-0.1,0.4-0.2,0.7-0.2c0.4,0.1,0.7,0.4,0.7,0.8
	c0,0.3-0.1,0.5-0.4,0.7c-0.1,0.1-0.3,0.2-0.4,0.2L54.7,40c-0.5,0.3-1,0.6-1.5,0.9L49.7,43c-0.4,0.2-0.6,0.6-0.6,1.1
	c0,1.2,0,2.4,0,3.6c0,0.5,0,1,0,1.5l0,0c0,0.1,0,0.3,0.1,0.6l0.2,0.3l0.3,0c0.3,0,0.5-0.1,0.6-0.2c0.4-0.2,0.8-0.5,1.2-0.7
	c0.3-0.2,0.6-0.3,0.9-0.5c0.6-0.4,1.2-0.7,1.8-1.1l0.8-0.5c0.6-0.3,1.1-0.7,1.7-1c0.2-0.1,0.5-0.3,0.7-0.4c0.5-0.3,1-0.6,1.5-0.9
	c0.2-0.1,0.3-0.2,0.5-0.2c0.1,0,0.4,0,0.6,0.2c0.2,0.2,0.3,0.7,0.1,1c-0.1,0.2-0.3,0.3-0.6,0.5c-0.8,0.5-1.6,0.9-2.4,1.4
	c-0.3,0.2-0.5,0.3-0.8,0.5c-0.3,0.2-0.5,0.3-0.8,0.5c-0.3,0.2-0.6,0.3-0.9,0.5c-0.3,0.2-0.6,0.3-0.9,0.5c-0.4,0.2-0.8,0.5-1.2,0.7
	c-0.4,0.2-0.7,0.4-1.1,0.7c-0.8,0.4-1.3,0.8-1.9,1.1c-0.3,0.2-0.5,0.5-0.5,0.8c0,0.1,0,0.3,0,0.4c0,0.1,0,0.3,0,0.4
	c0,0.1,0.1,9.5,0.1,9.6"/>
<path id="XMLID_4_" class="st1" d="M28.8,65.3c0,0,0-6.1,0-6.1l0,0c0-0.1,0-0.1,0-0.2c0-0.1,0-0.2,0-0.3c0-0.2,0-0.5-0.4-0.7
	c-0.4-0.2-0.8-0.4-1.2-0.7c-0.3-0.1-0.5-0.3-0.8-0.4c-0.2-0.1-0.5-0.3-0.7-0.4c-0.3-0.2-0.6-0.3-0.9-0.5c-0.3-0.1-0.5-0.3-0.8-0.4
	c-0.2-0.1-0.5-0.3-0.7-0.4l-0.7-0.4c-0.4-0.2-0.8-0.5-1.2-0.7c-0.2-0.1-0.3-0.4-0.2-0.6c0.1-0.3,0.4-0.3,0.5-0.3
	c0.1,0,0.2,0,0.3,0.1c0.3,0.2,0.5,0.3,0.8,0.4c0.1,0.1,0.2,0.1,0.3,0.2c0.2,0.1,0.4,0.2,0.6,0.4c0.2,0.1,0.5,0.3,0.7,0.4
	c0.3,0.2,0.6,0.3,0.9,0.5l1,0.6c0.5,0.3,0.9,0.5,1.4,0.8c0,0,0,0,0.1,0c0.1,0.1,0.2,0.2,0.4,0.2l0.5,0.1l0-3c0-0.4,0-0.7,0-1.1
	c0-0.3-0.1-0.4-0.3-0.6c-0.2-0.1-0.4-0.2-0.6-0.3c-0.1-0.1-0.3-0.2-0.4-0.2c-0.3-0.2-0.6-0.3-0.9-0.5c-0.3-0.2-0.7-0.4-1-0.6
	c-0.4-0.3-0.9-0.5-1.3-0.8l-0.8-0.5c-0.2-0.1-0.3-0.2-0.4-0.3c-0.1-0.2-0.1-0.5,0.1-0.6c0.1-0.1,0.2-0.2,0.4-0.2
	c0.1,0,0.2,0,0.3,0.1c0.2,0.1,0.4,0.2,0.6,0.3c0.2,0.1,0.4,0.2,0.6,0.3c0.3,0.2,0.6,0.3,0.9,0.5c0.2,0.1,0.5,0.3,0.7,0.4
	c0.3,0.2,0.6,0.4,0.9,0.6c0,0,0.1,0,0.1,0c0.1,0.1,0.2,0.1,0.4,0.2l0.4,0.1l0.1-0.4c0,0,0-0.1,0-0.2l0-0.9c0-0.7,0-1.4,0-2.1
	c0-0.2-0.1-0.4-0.3-0.6c-0.2-0.1-0.4-0.2-0.6-0.4c-0.1-0.1-0.2-0.1-0.4-0.2c-0.2-0.1-0.5-0.3-0.7-0.4c-0.2-0.1-0.5-0.3-0.7-0.4
	c-0.3-0.2-0.7-0.4-1-0.6c-0.2-0.1-0.4-0.4-0.3-0.7c0.1-0.2,0.3-0.4,0.6-0.4c0.2,0,0.3,0.1,0.5,0.2c0.4,0.2,0.7,0.4,1,0.6
	c0.2,0.1,0.3,0.2,0.5,0.3c0.2,0.1,0.5,0.3,0.7,0.4c0.1,0,0.1,0.1,0.2,0.1c0,0,0,0,0.1,0l0.4,0.2l0.2-0.4c0.1-0.1,0-0.3,0-0.3l0,0
	c0-0.5,0-0.9,0-1.4c0-0.7,0-1.4,0-2.1c0-0.3,0.1-0.5,0.3-0.7c0.1-0.1,0.3-0.2,0.5-0.2c0.2,0,0.4,0.1,0.5,0.2
	c0.1,0.2,0.2,0.3,0.2,0.6c0,0.7,0,1.3,0,2c0,0.5,0,0.9,0,1.4l0,0c0,0.1,0,0.2,0.1,0.4l0.1,0.2l0.3,0c0.2,0,0.3-0.1,0.3-0.1l0,0
	c0.2-0.1,0.5-0.3,0.7-0.4l0.6-0.3c0.3-0.2,0.5-0.3,0.8-0.5c0.2-0.1,0.4-0.2,0.5-0.2c0.2,0,0.3,0.1,0.4,0.2c0.1,0.1,0.2,0.3,0.1,0.5
	c0,0.1-0.1,0.3-0.3,0.4c-0.2,0.1-0.4,0.2-0.5,0.3l-0.7,0.4c-0.3,0.1-0.5,0.3-0.8,0.4c-0.1,0.1-0.3,0.2-0.4,0.3
	c-0.3,0.2-0.6,0.4-0.9,0.5c-0.3,0.2-0.4,0.4-0.4,0.7c0,0.7,0,1.4,0,2.1c0,0.3,0,0.6,0,0.8l0,0c0,0.1,0,0.2,0.1,0.3l0.1,0.2l0.3,0
	c0.2,0,0.3-0.1,0.4-0.1l0.4-0.2c0.2-0.1,0.4-0.2,0.6-0.3c0.2-0.1,0.4-0.3,0.7-0.4c0.3-0.2,0.5-0.3,0.8-0.5c0.5-0.3,1-0.6,1.4-0.8
	c0.2-0.1,0.3-0.1,0.5-0.1c0.3,0,0.4,0.3,0.4,0.5c0,0.2-0.1,0.3-0.3,0.5c-0.1,0-0.2,0.1-0.3,0.1l-1.3,0.7c-0.3,0.2-0.7,0.4-1,0.6
	l-2.3,1.4c-0.3,0.1-0.4,0.4-0.4,0.7c0,0.8,0,1.6,0,2.3c0,0.3,0,0.6,0,1l0,0c0,0.1,0,0.2,0.1,0.4l0.1,0.2l0.2,0
	c0.2,0,0.3-0.1,0.4-0.1c0.3-0.1,0.5-0.3,0.8-0.4c0.2-0.1,0.4-0.2,0.6-0.3c0.4-0.2,0.8-0.5,1.2-0.7l0.6-0.3c0.4-0.2,0.7-0.4,1.1-0.6
	c0.2-0.1,0.3-0.2,0.5-0.3c0.3-0.2,0.7-0.4,1-0.6c0.1-0.1,0.2-0.1,0.4-0.1c0.1,0,0.2,0,0.4,0.1c0.1,0.1,0.2,0.4,0.1,0.6
	c-0.1,0.1-0.2,0.2-0.4,0.3c-0.5,0.3-1,0.6-1.6,0.9c-0.2,0.1-0.3,0.2-0.5,0.3c-0.2,0.1-0.4,0.2-0.5,0.3c-0.2,0.1-0.4,0.2-0.6,0.3
	c-0.2,0.1-0.4,0.2-0.6,0.3c-0.3,0.2-0.5,0.3-0.8,0.5c-0.2,0.1-0.5,0.3-0.7,0.4c-0.5,0.3-0.9,0.5-1.3,0.7c-0.2,0.1-0.3,0.3-0.3,0.5
	c0,0.1,0,0.2,0,0.3c0,0.1,0,0.2,0,0.3c0,0.1,0.1,6.1,0.1,6.2"/>
<circle id="XMLID_3_" class="st1" cx="26.2" cy="27.7" r="3.7"/>
</svg>
