<?xml version="1.0" encoding="utf-8"?>
<!-- Generator: Adobe Illustrator 19.0.0, SVG Export Plug-In . SVG Version: 6.00 Build 0)  -->
<svg version="1.1" id="Capa_1" xmlns="http://www.w3.org/2000/svg" xmlns:xlink="http://www.w3.org/1999/xlink" x="0px" y="0px"
	 width="76.8px" height="76.3px" viewBox="0 0 76.8 76.3" style="enable-background:new 0 0 76.8 76.3;" xml:space="preserve">
<style type="text/css">
	.st0{fill:#FFFFFF;}
	.st1{fill:#50B250;stroke:#FFFFFF;stroke-width:2;stroke-miterlimit:10;}
	.st2{fill:#00A98F;}
	.st3{fill:#00A98F;stroke:#FFFFFF;stroke-miterlimit:10;}
</style>
<path id="XMLID_23_" class="st0" d="M24.8,72.7C5,65.3-5,43.6,2.5,24.2S32.2-4.9,52,2.5s29.8,29.1,22.3,48.4
	C66.7,70.3,44.6,80.1,24.8,72.7z"/>
<path id="XMLID_22_" class="st1" d="M37,41.8"/>
<path id="XMLID_21_" class="st1" d="M37,41.8"/>
<path id="XMLID_20_" class="st2" d="M57.4,25l-3.3,0.4l0.9-2.1c0.1-0.2,0.2-0.4,0.2-0.7c0.1-0.6-0.1-1.2-0.2-1.4
	c-0.2-0.3-0.6-0.9-0.7-1.8c0-0.3,0-0.6,0-0.8c0.1-0.7,0.4-1.3,0.6-1.5l0.1,0c-0.3,0.2-1.1,0.8-2.3,0.7c-0.9,0-1.6-0.3-1.9-0.5
	c-0.2-0.1-0.8-0.2-1.4-0.1c-0.6,0.1-1,0.4-1.3,0.7L48,18.1l-1.6,0.9l-0.5-1.9c0-0.2,0-0.7-0.1-0.9c-0.2-0.6-0.6-1-0.9-1.1
	c-0.3-0.1-1-0.5-1.5-1.2c-0.2-0.2-0.3-0.5-0.4-0.7c-0.3-0.7-0.3-1.3-0.3-1.6l0.1,0c-0.1,0.3-0.6,1.2-1.6,1.7
	c-0.8,0.4-1.5,0.5-1.9,0.4c-0.3,0.1-0.8,0.2-1.3,0.6c-0.4,0.4-0.6,0.9-0.7,1.2c-0.1,0.2,0.1-0.2,0.1-0.2l-0.1,0.2L36.5,19l-2.1-3
	c-0.1-0.2-0.3-0.4-0.5-0.5c-1.1-0.5-1.1-0.5-1.3-0.6c-0.3,0-1.1,0-1.9-0.3c-0.3-0.1-0.5-0.3-0.7-0.4c-0.6-0.5-0.9-1-1-1.2l0.1-0.1
	c0,0.3,0.1,1.3-0.5,2.3c-0.5,0.8-1.1,1.1-1.4,1.3c-0.2,0.2-0.6,0.6-0.8,1.2c-0.2,0.6-0.1,1.1,0,1.4c0.1,0.2,0.1,0.4,0.2,0.4l0.5,2.5
	l-2.9-1.3c-0.2-0.1-0.4-0.2-0.7-0.2c-0.7-0.1-1.2,0-1.4,0.1c-0.3,0.2-0.9,0.6-1.8,0.6c-0.3,0-0.6,0-0.8,0c-0.8-0.1-1.3-0.4-1.5-0.6
	l0-0.1c0.2,0.3,0.8,1.1,0.7,2.2c0,0.9-0.4,1.5-0.6,1.8c-0.1,0.2-0.2,0.8-0.1,1.4c0.1,0.6,0.4,1,0.7,1.2c0.1,0.2,0.3,0.3,0.3,0.3
	l2.4,3.2L18,31c-0.1,0-0.2,0-0.5,0c-0.4,0-0.9,0.1-1.4,0.4c-0.6,0.3-0.9,0.8-1,1c-0.1,0.3-0.3,1-0.9,1.7c-0.8,0.8-1.8,0.9-2.1,1
	c0.2,0.1,0.9,0.2,1.5,0.7c0.2,0.1,0.4,0.3,0.6,0.5c0.6,0.7,0.8,1.4,0.8,1.7c0,0.3,0.2,1.1,0.9,1.8c0.9,1,2.1,1.1,2.4,1.1l1.4,0.2
	c-0.9,0.6-1.7,1.2-2.6,1.7c-0.4,0.3-1.1,1-1.4,2.1c-0.2,0.5-0.2,1-0.2,1.4c0.1,0.3,0.3,1,0.2,1.9c-0.2,1.1-0.7,1.7-1,1.9l0.2-0.1
	c0.3-0.1,0.4-0.1,1.2-0.1c0.3,0,0.5,0,0.8,0.1c0.9,0.2,1.4,0.7,1.7,1c0.2,0.1,0.7,0.4,1.4,0.4c0.3,0,0.5,0,0.7-0.1l4.2-1.2l-2.1,2.9
	c0,0.1-0.1,0.2-0.2,0.4c-0.2,0.3-0.3,0.8-0.3,1.4c0.1,0.7,0.4,1.1,0.5,1.3c0.3,0.2,0.8,0.7,1.1,1.6c0.4,1.1,0.1,2,0,2.3
	c0.2-0.2,0.6-0.7,1.2-1c0.2-0.1,0.5-0.2,0.8-0.3c0.9-0.2,1.6-0.1,1.9,0c0.3,0,0.8,0,1.4-0.3c0.2-0.1,0.4-0.3,0.6-0.4l2.9-2.2l0,2.7
	c0,0.1,0,0.2,0,0.5c0,0.4,0.1,0.9,0.5,1.3c0.4,0.5,0.9,0.8,1.1,0.9c0.3,0.1,1.1,0.2,1.7,0.8c0.9,0.8,1.1,1.7,1.2,2L37,63.8
	c0-0.2,0.2-0.9,0.6-1.5c0.1-0.2,0.3-0.4,0.5-0.6c0.6-0.6,1.4-0.8,1.7-0.9c0.2-0.1,0.7-0.4,1.1-0.9c0.1-0.2,0.3-0.7,0.3-0.9l0.9-2.4
	l1.3,1.7c0,0.1,0.1,0.2,0.2,0.4c0.2,0.3,0.5,0.7,1.1,0.9c0.6,0.3,1.2,0.3,1.4,0.2c0.3-0.1,1-0.3,1.9-0.1c1.2,0.2,1.9,0.9,2.1,1.2
	l0,0c-0.1-0.2-0.4-0.8-0.3-1.5c0-0.2,0.1-0.5,0.1-0.8c0.3-0.8,0.8-1.4,1-1.6c0.1-0.2,0.4-0.7,0.4-1.3c0-0.3,0-0.5-0.1-0.7L51,52.8
	l2.2,0.6c0.3,0.1,0.8,0.3,1.4,0.2c0.7-0.1,1.1-0.4,1.3-0.5c0.2-0.3,0.7-0.8,1.6-1.1c1.1-0.4,2.1-0.2,2.4-0.1l-0.1,0
	c-0.2-0.1-0.7-0.5-1.1-1.2c-0.1-0.2-0.2-0.5-0.3-0.7c-0.2-0.8-0.1-1.6,0-1.9c0-0.3,0-0.8-0.3-1.4c-0.1-0.2-0.3-0.4-0.4-0.6l-1.3-1.8
	l3.3-0.5c1.4-0.3,1.6-1.3,2.2-2.3c0.5-1,1.6-1.7,2.7-1.8l-0.1,0.1c-0.2,0-0.9-0.2-1.5-0.6c-0.2-0.1-0.4-0.3-0.6-0.5
	c-0.6-0.7-0.8-1.4-0.8-1.7c-0.1-0.2-0.4-0.7-0.9-1.1c-0.2-0.1-0.4-0.2-0.6-0.3L57,35.2l2.4-2.2c0.2-0.1,0.4-0.3,0.5-0.5
	c0.4-0.5,0.6-1,0.6-1.3c0-0.3,0-1.1,0.4-1.9c0.1-0.3,0.3-0.5,0.4-0.7c0.5-0.6,1.1-0.9,1.3-1l0.1,0.1c-0.3,0-1.3,0.1-2.3-0.5
	c-0.8-0.5-1.1-1.1-1.3-1.4c-0.2-0.2-0.6-0.6-1.2-0.8c-0.7-0.2-1.2-0.1-1.4-0.1"/>
<path id="XMLID_7_" class="st3" d="M51.7,36c1.4-0.3,3.3-0.5,4.4-1.4c0.9-0.8,0.7-1.6,0.8-2.6c0.1-1,0.7-1.8,1.5-2.3l0.1-0.1
	c-0.2,0-0.7,0.1-1.4,0c-0.2,0-0.4-0.1-0.6-0.2c-0.7-0.3-1.1-0.8-1.2-1.1c-0.2-0.1-0.5-0.5-1.1-0.6c-0.8-0.2-1.4,0.2-1.6,0.3
	c-0.7,0.3-1.3,0.7-2,1l-1.9,1.3l-0.2,0.2l0.8-0.7l0.9-0.8c0.5-0.6,1-1.1,1.5-1.7c0.1-0.1,0.1-0.2,0.3-0.3c0.2-0.3,0.4-0.7,0.4-1.2
	c0-0.6-0.1-1-0.2-1.2c-0.2-0.2-0.6-0.7-0.7-1.5c-0.2-1,0.2-1.8,0.3-2c-1.5,1.3-3.5,0.3-5,1.2c-1.2,0.4-2,1.5-2.3,2.8l-0.3-0.2
	c0.5-1.2,1.2-3,0.8-4.3c-0.3-0.9-1-1-1.7-1.6c-0.7-0.6-1.1-1.4-1.2-2.4l0-0.1c-0.4,1.1-1.2,1.9-2.3,2.2c-1.1,0.3-1.9,0.8-2.1,1.9
	c-0.3,1.6-0.1,3.2-0.1,4.8l0,0.1c-0.4-2.7-0.8-6.8-4.5-6.2c-0.8,0-1.6-0.9-2.1-1.5L31,18c0.3,1.5-0.4,2.5-1.4,3.5
	c-1.3,1.5,0.4,3.8,1.1,5.2l0,0c-1.2-1.3-3.7-4.1-5.7-2.3c-1.1,0.7-2.1,0.6-3.1,0l-0.2,0.3c0.7,0.8,1,1.5,0.8,2.6
	c-0.2,0.9-0.4,1.7,0,2.6c0.9,1.7,3.7,2.6,5.3,3.3l0.6,0.3c-1.8-0.6-4.6-0.7-6.5-0.3c-2.5,0.5-2.6,3.7-5.2,4l0.1,0
	c1.4,0.4,2.1,1.4,2.9,2.8c0.8,2.3,4.4,0.8,6.5,0.2l-4.3,1.7c-1.4,1.5-0.2,3.8-2.2,5l-0.1,0.1c0.2-0.1,0.8-0.2,1.4-0.1
	c0.2,0,0.5,0.1,0.7,0.2c0.2,0.1,0.3,0.2,0.5,0.2c0.2,0.2,0.6,0.4,1.1,0.6c0.7,0.2,1.4,0.2,1.7,0.2c0.5-0.1,1.1-0.1,1.6-0.4
	c0.7-0.4,3.7-2.2,4.4-2.6l0.6-0.1l-3.4,1.7L27,47.4c-0.9,0.4-1.3,0.6-1.7,1.2c0,0.1-0.1,0.2-0.2,0.3c-0.2,0.3-0.3,0.7-0.3,1.2
	c0,0.6,0.2,1,0.3,1.1c0.2,0.2,0.6,0.7,0.8,1.4c0.2,1-0.1,1.7-0.2,2l0.1,0c1.1-1.4,2.9-0.4,4.3-0.8c2.1-0.6,2.2-3,3-4.6l0.4,0
	c-0.2,1.7-1.7,3.5-0.4,5.1c1.3,1,2.6,1.6,2.9,3.3l0,0c0.1-0.3,0.3-1.1,1.1-1.7c0.6-0.5,1.2-0.6,1.5-0.6c0.2-0.1,0.6-0.3,1-0.7
	c0.3-0.4,0.4-0.8,0.5-1.1c0-0.2,0-0.3,0-0.4c0-0.7,0-1.4,0-2.2l-0.1-1.1L38.6,45l1.2,4.1l0.6,2.1c0.3,0.7,0.5,1.3,0.8,2
	c0.1,0.2,0.3,0.8,1,1.2c0.5,0.3,1,0.3,1.2,0.3c0.3-0.1,0.9-0.2,1.6,0c0.2,0.1,0.5,0.2,0.6,0.3c0.6,0.3,0.9,0.7,1,0.9l0-0.1
	c-0.7-1.4,0.7-2.5,1.2-3.7c0.6-1.5-0.3-3.2-1.3-4.3l0.4-0.2c1.6,2.1,2.7,2.5,3.5,2.4c0.7-0.1,1.1-0.5,2.4-0.8
	c0.9-0.2,1.6-0.3,2.1-0.3c-1.2-1.5-0.1-3.6-1.4-5c-1.1-1.3-3.1-1.9-4.7-2.5l0.5,0.1l1,0.3l1.1,0.3c0.7,0.1,1.4,0.4,2.1,0.5
	c0.1,0,0.2,0,0.4,0.1c0.3,0,0.8,0,1.2-0.2c0.2-0.1,0.3-0.2,0.4-0.3c0.3-0.2,0.5-0.5,0.6-0.8c0.1-0.3,0.4-0.7,0.8-1.1
	c0.8-0.6,1.6-0.7,1.9-0.8l-0.1,0c-1-0.3-1.8-1-2.1-2c-0.3-0.8-0.4-1.5-1.4-1.9c-1.4-0.6-4.3-0.1-4.6-0.1"/>
<g id="XMLID_5_">
	<path id="XMLID_6_" class="st3" d="M40.3,45.9l-0.1-1.8l0,0.3l0.7,1.1l0.7,1.1c0.6,0.6,1.1,1.3,1.7,1.9c0.1,0.1,0.2,0.2,0.3,0.3
		c0.3,0.2,0.7,0.5,1.3,0.6c0.6,0.1,1.2,0,1.4-0.1c0.3-0.2,0.9-0.5,1.8-0.6c1.2-0.1,2,0.4,2.3,0.6l0.2,0c-0.1-0.2-0.5-0.7-0.6-1.4
		c0-0.2-0.1-0.5-0.1-0.8c0-0.9,0.4-1.5,0.6-1.8c0.1-0.2,0.9-1.3,0.8-2c-0.2-0.9-0.6-1.5-0.8-1.6c-0.7-0.5-1.7-1.2-2.3-1.7l-2.2-1.1
		l0,0.1c2.1-0.1,4.6,0.1,5.8-1.5c0.5-0.5,0.6-0.5,0.7-1.2c0-0.1,0.1-0.2,0.2-0.7c0.3-1.1,0.6-2.5,1.9-3l0.1-0.1
		c-2.1,0.1-2.9-1.6-4.4-2.2c-1.9-1-4,0.5-5.8,1.4L44.1,31c0.8-1.7,2.3-3.4,1.6-5.4c-0.9-1.5-2.6-2.4-2.6-4.5L43.1,21
		c-1,1.4-2.6,1.8-4.1,2.1c-2.2,0.9-1.9,4.2-2.1,6.1l-0.3,0c-1.7-1.3-3-4.5-5.5-4c-1.5,0.1-3.2,1.6-5.1,0.9l-0.2,0
		c1.6,1.8-0.2,4.6,0.8,6.5c0.3,0.5,1.3,1,2.1,1.3l2.2,0.3c-1.6-0.2-4-0.6-5.1,0.9c-1,1.4-0.9,3.6-3,4.1l-0.1,0.1
		c2.1-0.2,2.8,2.3,4.6,3c1.2,0.7,2.2,0.7,3.6,0.1c-0.3,0.2-0.6,0.6-0.8,1.1c-0.6,1.2-0.4,2.3-0.3,2.7c0.1,0.4,0.2,1,0.5,1.6
		c0.4,0.8,0.9,1.4,1.2,1.7c0.6,0.4,1.1,1,1.9,1.6c0.7,0.5,1.4,1.2,1.6,2.1l0.1,0.1c0.7-1.4,1.6-2.2,2.3-2.7c1-0.7,1.8-0.8,2.4-1.7
		c0.5-0.8,0.6-1.7,0.5-2.2L40.3,45.9z"/>
</g>
<g id="XMLID_3_">
	<path id="XMLID_4_" class="st3" d="M42.6,34.5l0.5-0.5c0.3-0.4,0.6-0.8,0.9-1.2c0,0,0.1-0.1,0.2-0.2c0.1-0.2,0.2-0.5,0.2-0.8
		c0-0.4-0.2-0.7-0.3-0.8c-0.1-0.1-0.4-0.4-0.6-0.9c-0.2-0.6,0-1.2,0.1-1.4l0-0.1c-0.1,0.1-0.4,0.4-0.8,0.5c-0.1,0.1-0.3,0.1-0.5,0.1
		c-0.5,0.1-0.9,0-1.1-0.1c-0.1,0-0.5,0-0.8,0.1c-0.5,0.2-0.7,0.6-0.8,0.8c-0.2,0.4-0.5,0.9-0.7,1.3l-0.5,1.4l-0.1-0.4l-0.2-0.7
		c-0.2-0.4-0.4-0.9-0.6-1.3c0,0-0.1-0.1-0.1-0.2c-0.1-0.2-0.3-0.4-0.6-0.6c-0.4-0.2-0.7-0.2-0.8-0.1c-0.2,0.1-0.6,0.2-1.1,0.1
		c-0.7-0.1-1.1-0.6-1.2-0.7l-0.1,0c0.1,0.1,0.2,0.5,0.1,0.9c0,0.1,0,0.3-0.1,0.5c-0.2,0.5-0.5,0.8-0.6,0.9c-0.1,0.1-0.3,0.4-0.3,0.8
		c0,0.5,0.2,0.9,0.3,1c0.3,0.4,0.6,0.8,0.9,1.2l1,1.1l0.2,0.1L34.5,35l-0.7-0.3c-0.5-0.2-1-0.3-1.4-0.5c0,0-0.1-0.1-0.3-0.1
		c-0.2,0-0.5-0.1-0.8,0c-0.4,0.1-0.6,0.4-0.7,0.5c-0.1,0.2-0.3,0.5-0.7,0.8c-0.6,0.4-1.2,0.4-1.4,0.3l-0.1,0
		c0.1,0.1,0.5,0.2,0.8,0.6c0.1,0.1,0.2,0.2,0.3,0.4c0.2,0.5,0.3,0.9,0.2,1.1c0,0.1,0.1,0.5,0.4,0.7c0.4,0.4,0.8,0.5,1,0.5
		c0.5,0.1,1,0.2,1.5,0.2l1.5,0.1L34,39.6l-0.5,0.5c-0.3,0.4-0.6,0.8-0.9,1.2c0,0-0.1,0.1-0.2,0.2c-0.1,0.2-0.2,0.5-0.2,0.8
		c0,0.4,0.2,0.7,0.2,0.8c0.1,0.1,0.4,0.5,0.6,1c0.2,0.7,0,1.2-0.1,1.4l0,0.1c0.1-0.1,0.4-0.4,0.8-0.5c0.1-0.1,0.3-0.1,0.5-0.1
		c0.5-0.1,0.9,0,1.1,0.1c0.1,0,0.5,0,0.8-0.1c0.5-0.2,0.7-0.6,0.8-0.7c0.2-0.4,0.5-0.9,0.7-1.3l0.5-1.4l0.1,0.4l0.2,0.7
		c0.2,0.5,0.4,0.9,0.6,1.4c0,0,0.1,0.1,0.1,0.2c0.1,0.2,0.3,0.4,0.6,0.6c0.3,0.2,0.7,0.2,0.8,0.2c0.2-0.1,0.6-0.2,1.1,0
		c0.7,0.2,1.1,0.6,1.2,0.7l0.1,0c0-0.1-0.2-0.5-0.1-0.9c0-0.1,0-0.3,0.1-0.5c0.2-0.5,0.5-0.8,0.6-0.9c0.1-0.1,0.3-0.4,0.3-0.8
		c0-0.5-0.2-0.9-0.3-1c-0.3-0.4-0.6-0.8-0.8-1.2l-1-1.1l-0.1-0.3l0.7,0.3l0.7,0.3c0.5,0.2,1,0.3,1.4,0.5c0,0,0.1,0,0.3,0.1
		c0.2,0,0.5,0.1,0.8-0.1c0.4-0.1,0.6-0.4,0.7-0.5c0.1-0.2,0.3-0.6,0.7-0.8c0.6-0.4,1.1-0.4,1.3-0.4l0.1,0c-0.1-0.1-0.5-0.2-0.8-0.5
		c-0.1-0.1-0.2-0.2-0.3-0.4c-0.3-0.4-0.3-0.9-0.3-1.1c0-0.1-0.1-0.4-0.4-0.7c-0.4-0.4-0.9-0.5-1-0.5c-0.5-0.1-1-0.1-1.5-0.2l-1.5,0
		L42.6,34.5z"/>
</g>
</svg>
