<?xml version="1.0" encoding="utf-8"?>
<!-- Generator: Adobe Illustrator 19.0.0, SVG Export Plug-In . SVG Version: 6.00 Build 0)  -->
<svg version="1.1" id="Capa_1" xmlns="http://www.w3.org/2000/svg" xmlns:xlink="http://www.w3.org/1999/xlink" x="0px" y="0px"
	 width="76.8px" height="76.3px" viewBox="0 0 76.8 76.3" style="enable-background:new 0 0 76.8 76.3;" xml:space="preserve">
<style type="text/css">
	.st0{fill:#FDFFFF;}
	.st1{fill:#00A98F;}
	.st2{fill:#FFFFFF;}
	.st3{fill:none;stroke:#00A98F;stroke-miterlimit:10;}
</style>
<circle id="XMLID_20_" class="st0" cx="38.8" cy="38.1" r="38.1"/>
<path id="XMLID_6_" class="st1" d="M38.8,9.9c-10.4,0-18.9,8.7-18.9,19.3c0,2.2,0.4,4.3,1.1,6.4l0.7,1.5l7.9,15.2l1.3,4.2h15.5
	l1.3-4.2L56,37.1l1-2.7l0,0c0.4-1.7,0.7-3.4,0.7-5.1C57.7,18.6,49.2,9.9,38.8,9.9z"/>
<g id="XMLID_4_">
	<path id="XMLID_5_" class="st2" d="M43.8,31.2c-0.2-0.4-0.4-0.5-0.6-0.5c-0.4,0-0.8,0.4-1.2,0.9c-0.3,0.4-0.8,0.9-1.1,0.9h0
		c0,0,0,0-0.1,0c-0.6-0.1-0.6-0.3-0.6-0.6c0-0.2,0-0.6-0.2-0.8c-0.3-0.3-0.8-0.5-1.7-0.5c0,0-0.1,0-0.1,0c-0.5,0-0.8,0.1-1.1,0.4
		c-0.3,0.3-0.3,0.8-0.3,1.2c0,0.2,0,0.5-0.1,0.6c0,0.1-0.2,0.1-0.2,0.1c0,0-0.1,0-0.2,0c-0.7-0.1-1-0.8-1.3-1.4
		c-0.2-0.5-0.4-1-0.8-1c-0.2,0-0.4,0.1-0.6,0.3l-0.1,0.1l3.1,26.7c0.1,0,0.1,0,0.2,0c0.1,0,0.2,0,0.2,0c0-0.1,0.1-0.1,0.1-0.2
		l-3-26.3c0.1,0,0.1,0,0.1,0c0.1,0,0.3,0.4,0.3,0.6c0.3,0.7,0.7,1.6,1.7,1.8c0.1,0,0.2,0,0.2,0c0.3,0,0.5-0.1,0.6-0.2
		c0.2-0.3,0.2-0.6,0.2-1c0-0.3,0-0.6,0.1-0.8c0.1-0.1,0.4-0.2,0.8-0.2c0.9,0,1.2,0.2,1.3,0.3c0.1,0.1,0.1,0.2,0.1,0.4
		c0,0.4-0.1,1,1,1.3c0.1,0,0.1,0,0.2,0h0c0.6,0,1-0.6,1.5-1.1c0.2-0.3,0.6-0.7,0.8-0.7c0,0,0,0,0.1,0.1c-0.2,1.5-2,21-2.9,26
		c0.1,0,0.2,0,0.2,0c0.1,0,0.2,0,0.3,0c1-5.6,2.8-24.9,2.9-26L43.8,31.2L43.8,31.2z"/>
</g>
<path id="XMLID_3_" class="st3" d="M31.9,55.6c-0.4,0.3-1.1,1.1-1.1,1.7c0,0.8,0.6,1.2,0.6,1.2l0.1,0.1c-0.4,0.3-0.8,0.8-0.8,1.4
	c0,0.8,0.6,1.2,0.6,1.2l0.2,0.1c-0.4,0.3-0.7,0.8-0.7,1.3c0,0.8,0.6,1.2,0.6,1.2l0.1,0.1c-0.4,0.3-0.8,0.8-0.8,1.4
	c0,0.1-0.1,0.8,0.3,1.5c0.5,0.7,1.1,0.8,1.2,0.8c1.4,0,2,0,3.5,0c0.2,0,2.1,0.5,3.1,0.5c1,0,2.5-0.5,2.5-0.5h4.2
	c0.1-0.1,0.6-0.4,0.8-1c0.2-0.6,0.1-1.1,0.1-1.2c0-0.2,0-0.6-0.3-0.9c-0.2-0.2-0.3-0.3-0.3-0.3l-0.1-0.1c0.4-0.3,0.8-0.8,0.8-1.4
	c0-0.8-0.6-1.2-0.6-1.2l-0.2-0.1c0.4-0.3,0.7-0.8,0.7-1.3c0-0.8-0.6-1.2-0.6-1.2l-0.1-0.1c0.4-0.3,0.8-0.8,0.8-1.4
	c0-0.8-0.5-1.5-1.2-1.7"/>
</svg>
