<?xml version="1.0" encoding="utf-8"?>
<!-- Generator: Adobe Illustrator 19.0.0, SVG Export Plug-In . SVG Version: 6.00 Build 0)  -->
<svg version="1.1" id="Capa_1" xmlns="http://www.w3.org/2000/svg" xmlns:xlink="http://www.w3.org/1999/xlink" x="0px" y="0px"
	 width="76.8px" height="76.3px" viewBox="0 0 76.8 76.3" style="enable-background:new 0 0 76.8 76.3;" xml:space="preserve">
<style type="text/css">
	.st0{fill:#50B250;stroke:#FFFFFF;stroke-width:2;stroke-miterlimit:10;}
	.st1{fill:#FFFFFF;}
	.st2{fill:#00A98F;}
</style>
<path id="XMLID_22_" class="st0" d="M37,41.8"/>
<path id="XMLID_21_" class="st0" d="M37,41.8"/>
<circle id="XMLID_4_" class="st1" cx="38.5" cy="38.2" r="38.2"/>
<path id="XMLID_3_" class="st2" d="M37.3,67.2c0,0,0-0.1,0.1-0.1c0,0,0-0.1,0-0.1c0,0,0-0.1,0-0.2l0,0c0-0.1,0-0.2,0-0.2
	c0-0.1,0-0.3,0-0.4c0-0.3,0-0.6-0.5-0.9c-0.5-0.3-1-0.6-1.5-0.9c-0.3-0.2-0.7-0.4-1-0.6c-0.3-0.2-0.6-0.4-0.9-0.5
	c-0.4-0.2-0.8-0.4-1.2-0.7c-0.3-0.2-0.7-0.4-1-0.6c-0.3-0.2-0.7-0.4-1-0.6l-0.9-0.5c-0.5-0.3-1.1-0.6-1.6-0.9
	c-0.2-0.1-0.4-0.5-0.3-0.9c0.2-0.4,0.5-0.4,0.7-0.4c0.1,0,0.3,0,0.4,0.1c0.3,0.2,0.7,0.4,1,0.6c0.1,0.1,0.3,0.1,0.4,0.2
	c0.3,0.2,0.6,0.3,0.8,0.5c0.3,0.2,0.6,0.4,1,0.6c0.4,0.2,0.8,0.4,1.1,0.7l1.3,0.8c0.6,0.3,1.2,0.7,1.8,1c0,0,0.1,0,0.1,0
	c0.1,0.1,0.3,0.2,0.6,0.2l0.6,0.1l0-3.9c0-0.5,0-1,0-1.5c0-0.3-0.1-0.6-0.4-0.8c-0.3-0.1-0.5-0.3-0.8-0.4c-0.2-0.1-0.3-0.2-0.5-0.3
	c-0.4-0.2-0.8-0.4-1.1-0.7c-0.5-0.3-0.9-0.5-1.4-0.8c-0.6-0.3-1.1-0.7-1.7-1l-1-0.6c-0.2-0.1-0.4-0.2-0.5-0.4
	c-0.1-0.2-0.1-0.6,0.1-0.8c0.1-0.2,0.3-0.3,0.6-0.3c0.1,0,0.3,0,0.4,0.1c0.2,0.1,0.5,0.3,0.7,0.4c0.3,0.2,0.5,0.3,0.8,0.5
	c0.4,0.2,0.8,0.5,1.2,0.7c0.3,0.2,0.7,0.4,1,0.6c0.4,0.2,0.8,0.5,1.3,0.7c0,0,0.1,0,0.1,0.1c0.1,0.1,0.3,0.2,0.5,0.3l0.6,0.1
	l0.1-0.6c0,0,0-0.1,0-0.2l0-1.1c0-1,0-1.9,0-2.9c0-0.2-0.1-0.5-0.4-0.7c-0.3-0.2-0.6-0.3-0.8-0.5c-0.2-0.1-0.3-0.2-0.5-0.3
	c-0.3-0.2-0.7-0.4-1-0.6c-0.3-0.2-0.7-0.4-1-0.6c-0.5-0.3-0.9-0.5-1.4-0.8c-0.3-0.2-0.5-0.6-0.4-1c0.1-0.3,0.4-0.5,0.7-0.6
	c0.2,0,0.4,0.1,0.7,0.2c0.5,0.3,0.9,0.5,1.3,0.8c0.2,0.1,0.5,0.3,0.7,0.4c0.3,0.2,0.6,0.4,0.9,0.6c0.1,0.1,0.2,0.1,0.3,0.1
	c0,0,0.1,0,0.1,0l0.6,0.3l0.2-0.6c0.1-0.2,0.1-0.3,0.1-0.4l0,0c0-0.6,0-1.2,0-1.8c0-0.9,0-1.8,0-2.8c0-0.4,0.1-0.7,0.4-0.9
	c0.2-0.1,0.4-0.2,0.6-0.2c0.3,0,0.6,0.1,0.7,0.3c0.2,0.2,0.2,0.5,0.2,0.8c0,0.9,0,1.8,0,2.7c0,0.6,0,1.2,0,1.8l0,0
	c0,0.1,0,0.3,0.1,0.5l0.2,0.3l0.4,0c0.2,0,0.4-0.1,0.4-0.2l0,0c0.3-0.2,0.6-0.4,0.9-0.5l0.8-0.4c0.4-0.2,0.7-0.4,1.1-0.6
	c0.3-0.2,0.5-0.2,0.7-0.2c0.2,0,0.4,0.1,0.6,0.3c0.2,0.2,0.2,0.4,0.2,0.7c0,0.1-0.1,0.4-0.4,0.6c-0.2,0.1-0.5,0.3-0.7,0.4l-0.9,0.5
	c-0.3,0.2-0.7,0.4-1,0.6c-0.2,0.1-0.4,0.2-0.6,0.3c-0.4,0.2-0.8,0.5-1.2,0.7c-0.4,0.2-0.5,0.5-0.5,0.9c0,0.9,0,1.8,0,2.7
	c0,0.4,0,0.8,0,1.1l0,0c0,0.1,0,0.3,0.1,0.4l0.2,0.3l0.4,0c0.2,0,0.4-0.1,0.5-0.2L41,55c0.3-0.1,0.5-0.3,0.8-0.4
	c0.3-0.2,0.6-0.3,0.9-0.5c0.3-0.2,0.7-0.4,1-0.6c0.7-0.4,1.3-0.7,1.8-1.1c0.2-0.1,0.4-0.2,0.6-0.1c0.4,0.1,0.6,0.3,0.6,0.7
	c0,0.3-0.1,0.5-0.4,0.6c-0.1,0.1-0.2,0.1-0.3,0.2l-1.7,1c-0.4,0.3-0.9,0.5-1.3,0.8l-3.1,1.8c-0.3,0.2-0.5,0.5-0.5,0.9
	c0,1,0,2.1,0,3.1c0,0.4,0,0.9,0,1.3l0,0c0,0.1,0,0.3,0.1,0.5l0.1,0.2l0.3,0c0.3,0,0.4-0.1,0.5-0.1c0.3-0.2,0.7-0.4,1-0.6
	c0.3-0.1,0.5-0.3,0.8-0.4c0.5-0.3,1.1-0.6,1.6-0.9l0.7-0.4c0.5-0.3,1-0.6,1.5-0.9c0.2-0.1,0.4-0.2,0.6-0.3c0.4-0.3,0.9-0.5,1.4-0.8
	c0.1-0.1,0.3-0.1,0.5-0.1c0.1,0,0.3,0,0.5,0.2c0.2,0.2,0.3,0.6,0.1,0.8c-0.1,0.2-0.3,0.3-0.5,0.4c-0.7,0.4-1.4,0.8-2.1,1.2
	c-0.2,0.1-0.5,0.3-0.7,0.4c-0.2,0.1-0.5,0.3-0.7,0.4c-0.3,0.1-0.5,0.3-0.8,0.4c-0.3,0.1-0.5,0.3-0.8,0.4c-0.4,0.2-0.7,0.4-1.1,0.6
	c-0.3,0.2-0.6,0.4-1,0.6c-0.7,0.4-1.2,0.7-1.7,1c-0.3,0.2-0.4,0.4-0.4,0.7c0,0.1,0,0.2,0,0.3c0,0.1,0,0.2,0,0.3c0,0.1,0,0.2,0,0.3
	c0,0.1,0,0.2,0.1,0.2c0.1,0.1,0.1,0.1,0.2,0.1c0.1,0,0.2,0,0.3,0C49.4,66.5,57,58.6,57,48.8c0-8.3-6-17.6-13.5-29.4
	c-0.9-1.4-1.8-2.8-2.7-4.2L37,8.7c0.1,2-1.5,7.5-2,9.6c-2,6.5-5.4,11-8.3,14.9c-3.3,4.4-6.3,10-6.9,15.6c0,9.8,7.6,17.8,17.2,18.5
	c0,0,0.1,0,0.1,0c0,0,0.1,0,0.1,0C37.2,67.3,37.2,67.3,37.3,67.2C37.3,67.3,37.3,67.2,37.3,67.2z"/>
</svg>
