<?xml version="1.0" encoding="utf-8"?>
<!-- Generator: Adobe Illustrator 19.0.0, SVG Export Plug-In . SVG Version: 6.00 Build 0)  -->
<svg version="1.1" id="Capa_1" xmlns="http://www.w3.org/2000/svg" xmlns:xlink="http://www.w3.org/1999/xlink" x="0px" y="0px"
	 width="76.8px" height="76.3px" viewBox="0 0 76.8 76.3" style="enable-background:new 0 0 76.8 76.3;" xml:space="preserve">
<style type="text/css">
	.st0{fill:#50B250;stroke:#FFFFFF;stroke-width:2;stroke-miterlimit:10;}
	.st1{fill:#FFFFFF;}
	.st2{fill:#00A98F;}
</style>
<path id="XMLID_22_" class="st0" d="M37.2,41.8"/>
<path id="XMLID_21_" class="st0" d="M37.2,41.8"/>
<circle id="XMLID_24_" class="st1" cx="38.4" cy="38.2" r="38.2"/>
<path id="XMLID_23_" class="st2" d="M20.5,48c0,0.1,0,0.2,0,0.4c0,10.1,8.2,18.3,18.3,18.3c10.1,0,18.3-8.2,18.3-18.3
	c0-8.2-5.9-17.3-13.3-28.9c-0.9-1.4-1.8-2.7-2.7-4.2l-3.8-6.4c0.1,1.9-1.5,7.3-1.9,9.5c-2,6.4-5.3,10.8-8.2,14.7
	c-3.2,4.3-6.2,9.9-6.8,15.3"/>
<g id="XMLID_7_">
	<path id="XMLID_20_" class="st1" d="M20.5,48.7c2.3,0,4.7,0,7,0c0.2,0,0.3-0.1,0.4-0.3c0.8-2.2,1.5-4.5,2.3-6.7c-0.2,0-0.5,0-0.7,0
		c0.8,5,1.7,10,2.5,14.9c0.1,0.3,0.7,0.3,0.7,0c1.2-7.9,2.4-15.7,3.5-23.6c-0.2,0-0.5-0.1-0.7-0.1c0.9,7.9,1.9,15.8,2.8,23.7
		c0.1,1.1,0.3,2.3,0.4,3.4c0,0.4,0.6,0.5,0.7,0.1c0.7-3,1.4-6.1,2.1-9.1c0.2-0.7,0.3-1.4,0.5-2.1c0-0.1,0.1-0.4,0.1-0.5
		c-0.1-0.2-0.3,0-0.1,0.1c0.4,0.3,2.1,0,2.5,0c0.7,0,1.4,0,2.1,0c0.5,0,0.5-0.7,0-0.7c-1.6,0-3.2,0-4.9,0c-0.2,0-0.3,0.1-0.4,0.3
		c-0.9,4-1.8,7.9-2.7,11.9c0.2,0,0.5,0.1,0.7,0.1c-0.9-7.9-1.9-15.8-2.8-23.7c-0.1-1.1-0.3-2.3-0.4-3.4c0-0.4-0.7-0.5-0.7-0.1
		c-1.2,7.9-2.4,15.7-3.5,23.6c0.2,0,0.5,0,0.7,0c-0.8-5-1.7-10-2.5-14.9c-0.1-0.4-0.6-0.3-0.7,0c-0.8,2.2-1.7,4.4-2.3,6.7
		c0.1-0.4,0.5-0.1,0.1-0.2c-0.2-0.1-0.6,0-0.8,0c-0.8,0-1.6,0-2.4,0c-1.2,0-2.4,0-3.7,0C20,48,20,48.7,20.5,48.7L20.5,48.7z"/>
</g>
<g id="XMLID_5_">
	<path id="XMLID_6_" class="st1" d="M50.6,48.3c-0.1,2.2-3.4,2.2-3.4,0C47.2,46.1,50.5,46.2,50.6,48.3c0,0.5,0.8,0.5,0.7,0
		c-0.1-1.3-1.1-2.4-2.4-2.4c-1.3,0-2.4,1.1-2.4,2.4c0,1.3,1,2.4,2.3,2.4c1.4,0.1,2.5-1.1,2.5-2.4C51.4,47.9,50.6,47.9,50.6,48.3z"/>
</g>
<path id="XMLID_4_" class="st1" d="M38.4,38.2"/>
<path id="XMLID_3_" class="st1" d="M38.4,38.2"/>
</svg>
