<?xml version="1.0" encoding="utf-8"?>
<!-- Generator: Adobe Illustrator 19.0.0, SVG Export Plug-In . SVG Version: 6.00 Build 0)  -->
<svg version="1.1" id="Capa_1" xmlns="http://www.w3.org/2000/svg" xmlns:xlink="http://www.w3.org/1999/xlink" x="0px" y="0px"
	 viewBox="-547 216 185 285" style="enable-background:new -547 216 185 285;" xml:space="preserve">
<style type="text/css">
	.st0{fill:#76C7D7;}
</style>
<path class="st0" d="M-447,405.6c-0.3-0.4-0.2-0.9-0.2-1.3c0-7.4,0-14.8,0-22.3c0-2-0.5-3.9-1.8-5.6c-2.7-3.3-7.8-3.5-10.7-0.8
	c-1.9,1.8-2.7,4-2.7,6.5c0,7.5,0,15,0,22.5c0,0.4,0.1,0.8-0.1,1.3c-0.5-0.2-0.9-0.4-1.4-0.7c-2.6-1.7-5.4-3.1-8-4.7
	c-2.2-1.3-4.4-2.6-6.5-3.8c-1.5-0.8-3-1.6-4.8-1.4c-2.7,0.2-5.1,2.1-6,4.6c-1.2,3.2,0.4,6.7,3.1,8.3c2.3,1.3,4.6,2.7,6.9,4
	c3.2,1.8,6.4,3.7,9.6,5.5c2.2,1.3,4.4,2.6,6.6,3.8c0.5,0.3,0.7,0.5,0.7,1.1c0,6.5,0,13.1,0,19.6c0,0.1,0,0.2-0.1,0.4
	c-0.9-0.2-1.6-0.8-2.4-1.3c-3.7-2.1-7.3-4.3-11-6.5c-3.3-1.9-6.6-3.8-9.9-5.7c-1.2-0.7-2.4-1.4-3.6-2.1c-2.8-1.7-6.4-1.2-8.4,1.3
	c-1.5,1.9-1.8,4.9-0.6,7c0.8,1.5,2.1,2.2,3.4,3c4.5,2.6,9,5.3,13.5,7.9c4.1,2.4,8.2,4.7,12.3,7.1c2.1,1.2,4.2,2.5,6.4,3.7
	c0.5,0.3,0.6,0.7,0.6,1.2c0,3.3,0,6.5,0,9.8c0,4.1,0,8.3,0,12.4c0,0.4,0,0.8,0,1.2c-0.9-0.1-1.5-0.7-2.2-1.1
	c-3.6-2-7.2-4.1-10.8-6.2c-3.4-1.9-6.7-3.9-10.1-5.8c-3-1.7-6-3.4-8.9-5.1c-2.3-1.3-4.6-2.6-6.9-4c-2.8-1.7-7.6-1.1-9.3,3
	c-1.2,3,0.2,6.3,2.5,7.7c4.1,2.3,8.1,4.6,12.2,7c3.3,1.9,6.5,3.8,9.8,5.7c3.4,2,6.9,3.9,10.3,5.9c4.2,2.4,8.3,4.8,12.5,7.1
	c0.7,0.4,1,0.8,0.9,1.6c-0.1,1.1,0,2.2,0,3.3c0,0.3,0.1,0.6-0.1,0.9c-2.3,0-4.6-0.2-6.9-0.6c-2.1-0.3-4.2-0.6-6.2-1.1
	c-4.2-0.9-8.3-2.2-12.3-3.8c-4.4-1.8-8.6-3.9-12.6-6.4c-3.9-2.4-7.6-5.2-11.1-8.2c-2.2-1.9-4.2-3.9-6.2-6c-1.9-2-3.7-4.2-5.4-6.4
	c-2.8-3.6-5.3-7.3-7.6-11.2c-2-3.5-3.9-7.1-5.5-10.8c-1.5-3.5-2.9-7.1-4.1-10.7c-1.5-4.7-2.7-9.4-3.6-14.3c-0.5-3-0.9-6.1-1.2-9.2
	c-0.5-4.4-0.5-8.9-0.3-13.4c0.1-2.8,0.4-5.6,0.8-8.4c0.5-3.8,1.4-7.6,2.3-11.3c1.2-4.4,2.7-8.7,4.5-12.9c3-7,6.9-13.5,11.2-19.6
	c3.3-4.7,6.8-9.2,10.4-13.7c4.8-6.2,9.7-12.4,14.2-18.8c4.4-6.2,8.5-12.7,12.3-19.3c3.5-6,6.7-12.3,9.7-18.6c1.9-4,3.7-8.1,5.4-12.2
	c2.9-6.9,5.5-14,7.9-21.1c2.5-7.3,4.7-14.7,6.9-22.1c0.5-1.5,0.9-3.1,1.3-4.7c0.9,0.9,1.4,1.9,2.1,2.8c2.6,3.7,5.2,7.4,7.8,11.2
	c2.8,4.1,5.6,8.2,8.5,12.3c3.3,4.9,6.6,9.8,9.9,14.8c4.7,7.1,9.3,14.3,13.8,21.6c3.6,5.8,7.1,11.7,10.6,17.6
	c3.1,5.3,6.1,10.7,9.1,16.1c4.1,7.4,7.9,14.9,11.5,22.5c2.9,6,5.6,12.1,8.1,18.3c2.5,6.3,4.9,12.6,7,19c2.2,6.8,4.1,13.7,5.5,20.8
	c0.7,3.5,1.3,7,1.7,10.5c0.2,1.9,0.4,3.9,0.6,5.8c0.1,1.8,0.1,3.6,0.2,5.4c0.1,1.3,0.2,2.6,0.1,4c-0.3,3-0.2,5.9-0.6,8.9
	c-0.4,3.6-1,7.1-1.9,10.6c-1.5,6.2-3.9,12.1-7,17.6c-2.6,4.5-5.7,8.6-9.2,12.5c-4,4.4-8.6,8.2-13.4,11.6c-5.3,3.8-11.1,6.9-17,9.7
	c-4.2,2-8.5,3.7-12.9,5.2c-5.8,2-11.7,3.6-17.7,4.7c-1.6,0.3-3.1,0.5-4.7,0.7c-0.6,0.1-0.8,0-0.8-0.7c0-1.1,0-2.2,0-3.3
	c0-0.5,0.2-0.8,0.6-1c2.8-1.5,5.5-3.1,8.3-4.7c3.4-1.9,6.7-3.9,10.1-5.8c2.5-1.4,5.1-2.9,7.6-4.3c2.3-1.3,4.6-2.7,7-4
	c3.4-1.9,6.8-3.9,10.2-5.8c1.5-0.8,2.8-1.7,3.7-3.2c1.3-2.3,0.6-5.8-1.1-7.5c-2.2-2.1-5.5-2.3-8.1-0.7c-3.2,1.9-6.4,3.7-9.6,5.5
	c-2.6,1.5-5.2,3-7.9,4.5c-3.6,2.1-7.3,4.2-10.9,6.2c-2.9,1.7-5.9,3.4-8.8,5.1c-0.3,0.1-0.5,0.4-0.9,0.3c-0.2-0.3-0.1-0.6-0.1-1
	c0-7.2,0-14.4,0-21.6c0-1,0.3-1.6,1.1-2c2.2-1.3,4.5-2.6,6.7-3.9c2.8-1.6,5.6-3.3,8.4-4.9c2.2-1.3,4.4-2.5,6.6-3.8
	c2.5-1.5,5-2.9,7.5-4.4c0.8-0.4,1.5-0.9,2.3-1.3c2.1-1.2,3.2-3.1,3.2-5.4c0-3.1-2-5.8-5.2-6.3c-1.8-0.3-3.3,0.1-4.8,1
	c-3,1.8-6,3.5-9,5.3c-3.2,1.8-6.3,3.6-9.5,5.5c-2,1.2-4,2.4-6.1,3.5c-0.4,0.2-0.7,0.5-1.1,0.5c-0.2-0.3-0.1-0.7-0.1-1
	c0-6.3,0-12.6,0-19c0-1,0.3-1.5,1.2-1.9c3-1.7,5.9-3.4,8.9-5.2c2.7-1.6,5.5-3.2,8.2-4.8c1.5-0.9,3.1-1.8,4.6-2.7
	c3.7-2.2,4.3-7.2,1.6-10.3c-1.2-1.4-2.8-2.2-4.7-2.3c-1.9-0.1-3.5,0.5-5,1.4c-2.7,1.6-5.4,3.2-8.1,4.7c-1.8,1-3.6,2.1-5.4,3.1
	C-446.3,405.3-446.6,405.5-447,405.6z"/>
</svg>
