<?xml version="1.0" encoding="utf-8"?>
<!-- Generator: Adobe Illustrator 19.0.0, SVG Export Plug-In . SVG Version: 6.00 Build 0)  -->
<svg version="1.1" id="Capa_1" xmlns="http://www.w3.org/2000/svg" xmlns:xlink="http://www.w3.org/1999/xlink" x="0px" y="0px"
	 width="76.8px" height="76.3px" viewBox="0 0 76.8 76.3" style="enable-background:new 0 0 76.8 76.3;" xml:space="preserve">
<style type="text/css">
	.st0{fill:#FFFFFF;}
	.st1{fill:#00A98F;}
</style>
<circle id="XMLID_6_" class="st0" cx="38.4" cy="38.2" r="38.2"/>
<path id="XMLID_3_" class="st1" d="M42.8,20.3c-0.8-1.3-1.7-2.7-2.6-4.1L36.6,10c0.1,1.9-1.5,7.1-1.9,9.2c-1.9,6.2-5.1,10.5-8,14.3
	c-2.9,3.9-5.6,9.2-6.4,14.2c0,0,0,0.1,0,0.1c0,0.3-0.1,0.8-0.1,1c0,0.2,0,0.2,0,0.4c0,0.3,0.1,0.5,0,0.7c0.8,9.1,8.4,16.2,17.7,16.2
	c9.8,0,17.8-8,17.8-17.8C55.7,40.5,50,31.6,42.8,20.3z M20.9,48.7c0.6-5,3.4-10.7,6.4-14.7c2.9-3.9,6.2-8.3,8.2-14.7l0-0.1
	c0.6-2.1,1-4.5,1.4-6.8l2.3,4c0.9,1.4,1.6,2.8,2.5,4.2C49,31.8,54.7,40.7,54.7,48.4l0,0.5c0,0,0,0.3-0.2,0.5
	c-0.1,0.1-0.4,0.2-0.7,0.2c-1.3,0-2.1-1-2.1-1.1l-0.5-0.6l-0.4,0.6c0,0-0.8,1-2.9,1c-2.1,0-3.6-1.1-3.6-1.1L43.9,48l-0.4,0.5
	c0,0-0.8,1-2.3,1c-1.6,0-2.6-1.1-2.6-1.1l-0.5-0.5l-0.4,0.6c0,0-0.7,1-2.3,1c-1.7,0-3.4-1.2-3.4-1.2l-0.4-0.3l-0.3,0.4
	c0,0-0.9,1.1-2.3,1.1c-1.5,0-3.2-1.2-3.3-1.2L25.1,48l-0.3,0.6c0,0-0.5,1-1.8,1c-0.2,0-0.4-0.1-0.6-0.2c0,0-0.2,0-0.7-0.2
	c-0.2-0.1-0.3-0.1-0.4-0.2C21.1,48.9,21,48.8,20.9,48.7z"/>
</svg>
